<?xml version="1.0" encoding="utf-8"?>
<!-- Generator: Adobe Illustrator 25.3.0, SVG Export Plug-In . SVG Version: 6.00 Build 0)  -->
<svg version="1.1" id="Capa_1" xmlns="http://www.w3.org/2000/svg" xmlns:xlink="http://www.w3.org/1999/xlink" x="0px" y="0px"
	 viewBox="0 0 3095 746" style="enable-background:new 0 0 3095 746;" xml:space="preserve">
<style type="text/css">
	.st0{fill:#F2EDE9;}
	.st1{fill:#E7A1CA;}
	.st2{fill:#F4EFEB;}
	.st3{fill:#FEFEFE;}
	.st4{font-family:'Cinzel-Regular';}
	.st5{font-size:72px;}
	.st6{fill:#824494;}
	.st7{fill:#E1D0E7;}
	.st8{fill:#7A378A;}
	.st9{fill:#7D3D8B;}
	.st10{fill:#81448B;}
	.st11{fill:#B490C2;}
	.st12{fill:#7E4686;}
	.st13{fill:#773C7F;}
	.st14{fill:#EFE2F1;}
	.st15{fill:#A072AF;}
	.st16{fill:#9864A7;}
	.st17{fill:#693179;}
	.st18{fill:#692B80;}
	.st19{fill:#DFCEE6;}
	.st20{fill:#FAF6FB;}
</style>
<g>
	<path class="st0" d="M2174.3,745.94c-722.3,0-1444.6,0-2166.9,0.06c-6.03,0-7.4-0.58-7.39-3.17c0.19-78.38,0.15-156.77,0.15-235.15
		c4.7-1.24,8.86,0.05,12.97,0.64c32.49,4.66,65.71,7.39,100.08,7.27c34.16-0.12,63.84-5.07,89.05-15c5.7-2.24,11.28-4.56,17.67-6.46
		c30.61-1.63,60.94-3.91,90.81-7.26c39.36-4.41,77.16-10.42,111.55-19.98c37.02-10.29,65.52-23.91,87.18-40.31
		c22.78-17.25,37.39-35.85,49.64-54.85c16.59-25.75,28.25-51.96,39.52-78.21c13.89-32.35,27.15-64.75,38.71-97.27
		c6.18-17.4,10.07-34.91,14.33-52.4c2.49-2.75,7.74-4.65,11.82-6.91c25.48-14.12,44.54-29.48,51-47.37
		c4.64-12.85,1.78-25.51-6.73-37.83c-11.86-17.16-29.33-33.3-52.42-48.26c-1.55-1.01-4.02-1.99-1.79-3.4
		c812.15,0,1624.3,0,2436.45,0c1.51,1.19,0.75,2.49,0.75,3.73c0.04,121.07,0.04,242.14,0.04,363.2c0,4.81-0.16,5.07-11.17,4.56
		c-34.46-1.61-64.77,3.87-94.87,9.87c-11.45,2.28-21.91,5.34-33.26,7.68c-2.96,0.43-5.79,0.03-8.64-0.3
		c-36.64-4.3-74.06-6.84-111.95-6.38c-89.06,1.07-169.52,12.72-237.73,37.95c-34.51,12.76-63.02,27.81-87.68,44.24
		c-34.37,22.9-61.09,47.47-86.31,72.38c-22.21,21.93-43.29,44.09-68.1,65.52c-14.42,12.46-30.5,24.55-47.4,36.44
		c-11.02,7.75-21.48,15.65-30.44,23.9c-10.56,4.21-22.33,7.78-32.74,12.13c-33.74,14.09-53.33,31.1-60.68,50.94
		c-2.03,5.48-0.47,11.03-3.01,16.47C2176.23,743.63,2176.64,744.95,2174.3,745.94z"/>
	<path class="st1" d="M0.16,468.31C0.16,313.35,0.18,158.39,0,3.42C0,0.75,0.83,0,7.66,0c172.38,0.11,344.75,0.09,517.13,0.09
		c22.02,5.11,39.42,12.58,55.97,20.41c45.72,21.65,67.31,47.62,73.88,76.29c2.99,13.05,3.85,26.11,2.37,39.21
		c-2.91,2.92-8.11,5.1-12.99,7.38c-25.12,11.73-54.41,21.07-87.28,28.45c-33.77,7.58-62.99,17.86-91.01,28.79
		c-29.34,11.45-59.02,22.72-89.24,33.74c-32.34,11.79-60.42,25.11-80.11,41.4c-27.47,22.72-30.45,46.32-13.8,70.67
		c3.71,5.43,8.86,10.59,13.33,15.87c11.39,13.46,15.72,27.31,12.63,41.69c-3.33,15.55-9.13,30.81-22.67,45.36
		c-16.5,17.73-42.39,32.67-74.9,45.58c-1.98,0.79-4.06,1.5-6.75,1.82C135,498.88,71.24,492.37,14.69,474.6
		C9.14,472.85,3.17,471.19,0.16,468.31z"/>
	<path class="st1" d="M3089.98,745.94c-293.96,0-587.92,0-881.89,0c-4.01-3.48-0.88-6.98,0.34-10.38
		c6.89-19.17,21.32-37.37,39.42-55.08c2.68-2.62,5.33-5.25,8.28-7.83c6.6-4.26,16.8-6.71,26.39-9.39
		c39.56-11.06,82.2-18.69,129.28-21.65c38.7-2.43,75.47-7.92,111.22-14.56c43.29-8.05,87.46-15.17,130.97-22.97
		c39.85-7.15,75.38-17.03,104.73-30.7c29.73-13.85,47.64-30.2,53.4-48.89c2.84-9.22,4.43-18.45,2.32-27.83
		c-2.16-9.57,1.4-19.11,8.06-28.27c17.02-23.38,43.67-44.46,84.18-61.98c12.67-5.48,27.11-10.1,42.02-14.41
		c3.74-1.08,7.48-2.27,12.21-2.52c18.33,1.44,35.07,4.84,51.85,8.07c24.67,4.74,48.27,10.38,70.79,16.83
		c3.52,1.01,7.59,1.88,7.24,4.16c-0.01,107.66,0,215.31-0.05,322.97C3090.73,742.99,3091.56,744.51,3089.98,745.94z"/>
	<path class="st2" d="M655.08,136.13c-0.01-7.59,0.58-15.19-0.14-22.77c-1.88-19.67-7.81-39.04-25.35-57.47
		c-16.91-17.77-42.6-32.74-76.05-45.45c-9.39-3.57-20.31-6.33-28.76-10.36c38.09,0,76.17,0,114.26,0c4.19,0.85,7.7,2.02,10.29,3.72
		c23.18,15.2,43.07,31.24,54.09,48.74c18.91,30.03,3.09,57.36-41.32,81.76C660.37,135.25,658.81,136.51,655.08,136.13z"/>
	<path class="st3" d="M3089.98,745.94c0-107.95,0-215.9,0-323.84c0-1.61-0.05-3.22-0.07-4.83c-2.59-1.61-2.58-3.45-2.58-5.3
		c0.01-10.34,0.05-20.68-0.01-31.01c-0.03-4.74-1.28-5.05-12.52-5.43c-36.78-1.24-68.61,4.85-99.64,12.17
		c-4.44,1.05-8.63,2.32-13.9,2.49c-24.44,5.53-45.46,13.03-63.68,21.79c-31.76,15.28-54.27,33.01-69.64,52.32
		c-9.31,11.7-11.93,23.74-10.5,36.25c3.64,31.76-17.95,59.63-74.95,81.26c-28.81,10.93-61.81,18.89-97.3,25.06
		c-47.86,8.33-95.72,16.66-143.57,25c-32.37,5.64-66.01,9.3-100.42,11.69c-41.14,2.86-78.27,9.97-113.23,19.44
		c-10.62,2.88-21.29,5.73-29.86,9.76c-6.72,4.64-17.1,7.9-24.88,12.15c-23.67,12.91-39.38,27.36-44.44,43.7
		c-1.5,4.85-2.7,9.8-1.89,14.75c0.15,0.93,0.32,1.84-1.34,2.59c-3.75,0-7.51,0-11.26,0c0.99-13.76,3.27-27.42,15.58-40.39
		c9.46-9.97,21.97-19.12,39.24-26.97c13.2-6,26.88-11.8,43.33-16.22c1.75-1.63,4.73-2.7,8.22-3.66
		c38.89-10.71,81.14-17.76,126.71-20.9c33.29-2.29,65.49-6.04,96.45-11.72c48.57-8.9,98.18-16.71,146.85-25.5
		c35.88-6.48,68.87-14.98,96.3-27c34.77-15.23,53.21-33.63,57.59-54.84c1.95-9.43,1.94-18.86,1.13-28.26
		c-1.28-14.81,6.64-28.46,23.11-41.39c15.31-12.02,30.57-24.02,49.89-34.99c16.86-9.57,37.63-17.27,60.75-23.9
		c2.67-0.76,5.38-1.54,8.86-1.34c27.81-7.73,57.51-13.71,89.5-17.44c15.12-1.76,30.7-1.63,46.14-0.74c4.22,0.24,6.18-0.09,6.05-1.99
		c-0.08-1.15,0-2.3,0-3.45c0-121.73,0-243.45,0-365.18c0.5,0.15,1.68-0.35,1.63,0.35c-0.07,0.92-0.02,1.84-0.02,2.76
		c0,246.54,0,493.09-0.1,739.63C3091.49,743.84,3093.35,745.17,3089.98,745.94z"/>
	<path class="st3" d="M655.08,136.13c24.07-11.75,40.37-25.2,48.28-40.51c10.36-20.04,5.36-39.35-14.89-57.93
		c-12.23-11.21-23.62-22.63-40.48-32.79c-2.77-1.67-5.96-3.22-8.95-4.82c4.83,0,9.66,0,14.48,0c8.27,5.6,16.47,11.19,23.45,17.13
		c17.64,15,33.49,30.2,39.5,47.04c8.15,22.8-4.96,43.36-33.4,62.51c-8.92,6.01-19.06,11.61-29.62,17.08
		c-3.08,3.77-10.31,6.04-16.72,8.62c-26.43,10.63-56.7,18.81-88.6,26.04c-23.12,5.24-43.34,12.31-62.62,19.82
		c-32.14,12.52-65.12,24.63-98,36.78c-31,11.46-59.79,23.72-80.15,39.21c-27.48,20.91-33.33,42.93-19.07,66
		c5.29,8.56,11.64,17.02,19.44,25.21c12.5,13.15,15.4,26.66,10.31,40.58c-4.91,13.41-9.81,26.81-19.8,39.77
		c-13.51,17.52-37.44,32.21-66.32,45.59c-3.11,1.44-6.44,2.79-11.28,3.08c-24.98,11.11-52.75,19.8-90.24,21.53
		c-36.88,1.7-72.24-1.05-107.35-5.27c-7.72-0.93-15.27-2.09-22.9-3.15c0-1.61,0-3.22,0-4.83c3.56-0.75,6.84-0.03,10.06,0.44
		c30.8,4.49,62.5,7.47,94.8,8.57c30.63,1.04,58.66-2.93,83.34-10.92c5.32-1.72,10.1-3.76,16.17-5.03
		c26.12-9.59,47.26-20.91,64.34-33.69c21.18-15.85,30.31-33.18,35.76-51.09c5.15-16.95,2.92-33.52-11.87-49.44
		c-8.16-8.78-15.24-17.64-19.12-26.92c-10.1-24.14,0.49-46.51,30.97-67.29c21.7-14.8,50.51-26.69,81.08-37.95
		c19.5-7.18,39.01-14.36,58.06-21.76c29.4-11.41,58.54-22.94,92.33-32.01c17.71-4.75,36.79-8.51,54.01-13.62
		C614.72,154.82,636.56,146.24,655.08,136.13z"/>
	<path class="st2" d="M204.54,495.9c-15.73,7.85-36.08,12.38-58.88,15.21c-20.47,2.54-40.93,2.3-61.77,0.78
		c-28.49-2.09-56.64-4.63-83.73-9.04c0-11.51,0-23.02,0-34.53c25.86,9.32,54.25,16.76,86.47,21.31c19.83,2.8,40.01,4.82,60.92,5.74
		C166.57,496.2,185.54,495.72,204.54,495.9z"/>
	<path class="st2" d="M2185.56,745.94c-2.98-12.03,1.27-23.67,10.91-34.95c12.83-15.02,32.64-28,61.64-38.23
		c-10.45,10.8-21.66,21.47-29.99,32.62c-9.88,13.22-17.54,26.66-20.03,40.56C2200.58,745.94,2193.07,745.94,2185.56,745.94z"/>
	<path class="st1" d="M2948.29,388.88c-48.45,12.39-80.28,31.02-106.3,51.9c-12.52,10.04-25.75,19.91-30.94,31.29
		c-2.23,4.88-2.84,9.78-2.85,14.73c-0.02,11.03,1.18,22.08-1.4,33.1c-4.26,18.2-18.81,34.55-46.2,48.71
		c-33.75,17.46-78.42,27.82-126.36,36.09c-48.2,8.32-96.41,16.63-144.64,24.91c-29.74,5.11-61.02,7.51-92.35,10.05
		c-45.27,3.67-86.99,11.29-124.8,22.69c0.32-3.1,4.98-5.39,8.16-7.94c20.84-16.71,45.42-32.52,65.06-49.52
		c16.65-14.41,31.95-29.09,46.73-43.87c17.83-17.84,35.58-35.69,55.09-53.22c18.62-16.72,39.13-32.96,63.12-48.36
		c15.18-9.75,32.49-18.76,51.07-27.38c30.53-14.18,65.74-25.57,106.03-34.03c35.79-7.52,73.5-12.43,113.06-14.76
		c20.69-1.22,41.41-2.21,62.27-1.89c32.09,0.48,63.79,2.4,94.98,5.73C2941.54,387.49,2945.42,387.71,2948.29,388.88z"/>
	<path class="st1" d="M220.65,494.56c41.92-16.99,71.26-37.13,83.59-61.51c6.4-12.66,12.7-25.38,13.97-38.34
		c0.82-8.36-2.27-16.68-9.15-24.65c-11.24-13.02-22.94-25.98-28.08-39.81c-7.32-19.68,0.87-38.15,23.15-55.53
		c20.87-16.29,51.05-29.06,83.64-40.98c27.69-10.13,55.01-20.46,82.11-30.88c29.79-11.45,60.71-22.09,96.7-29.94
		c33.17-7.24,61.39-17.47,86.9-29.06c-1.16,9.04-3.77,18.02-5.92,27.02c-2.61,10.95-6.29,21.83-10.28,32.68
		c-6.35,17.31-13.24,34.58-20.33,51.83c-8.48,20.64-16.99,41.29-26.27,61.87c-12.04,26.7-25.45,53.28-46.69,78.98
		c-14.12,17.08-32.01,33.36-58.52,47.65c-22.31,12.02-49.54,21.56-81.02,28.85c-45.04,10.43-93.67,16.1-143.75,19.79
		C247.43,493.5,234.33,495.1,220.65,494.56z"/>
	<path class="st2" d="M2961.26,390.18c26.82-7.58,55.38-13.52,87.39-15.58c11.27-0.73,22.97-0.51,34.45,0.08
		c4.92,0.25,7.09,1.19,7.03,3.59c-0.33,13-0.2,25.99-0.22,38.99c-20.12-5.48-40.32-10.89-61.74-15.43
		C3006.51,397.23,2984.32,393.25,2961.26,390.18z"/>
</g>
<g>
	<g>
		<path d="M1096.4,180.6c-3.12,0-6.11-0.51-8.97-1.53c-2.86-1.02-5.07-2.33-6.63-3.93l1.74-3.42c1.48,1.44,3.47,2.65,5.97,3.63
			c2.5,0.98,5.13,1.47,7.89,1.47c2.64,0,4.79-0.33,6.45-0.99c1.66-0.66,2.88-1.55,3.66-2.67c0.78-1.12,1.17-2.36,1.17-3.72
			c0-1.64-0.47-2.96-1.41-3.96c-0.94-1-2.17-1.79-3.69-2.37c-1.52-0.58-3.2-1.09-5.04-1.53c-1.84-0.44-3.68-0.91-5.52-1.41
			c-1.84-0.5-3.53-1.17-5.07-2.01c-1.54-0.84-2.78-1.95-3.72-3.33c-0.94-1.38-1.41-3.19-1.41-5.43c0-2.08,0.55-3.99,1.65-5.73
			c1.1-1.74,2.79-3.14,5.07-4.2c2.28-1.06,5.2-1.59,8.76-1.59c2.36,0,4.7,0.33,7.02,0.99c2.32,0.66,4.32,1.57,6,2.73l-1.5,3.54
			c-1.8-1.2-3.71-2.08-5.73-2.64c-2.02-0.56-3.97-0.84-5.85-0.84c-2.52,0-4.6,0.34-6.24,1.02c-1.64,0.68-2.85,1.59-3.63,2.73
			c-0.78,1.14-1.17,2.43-1.17,3.87c0,1.64,0.47,2.96,1.41,3.96c0.94,1,2.18,1.78,3.72,2.34c1.54,0.56,3.23,1.06,5.07,1.5
			c1.84,0.44,3.67,0.92,5.49,1.44c1.82,0.52,3.5,1.19,5.04,2.01c1.54,0.82,2.78,1.91,3.72,3.27c0.94,1.36,1.41,3.14,1.41,5.34
			c0,2.04-0.56,3.93-1.68,5.67c-1.12,1.74-2.83,3.14-5.13,4.2C1102.95,180.07,1100,180.6,1096.4,180.6z"/>
		<path d="M1140.08,180.6c-3.16,0-6.09-0.53-8.79-1.59c-2.7-1.06-5.04-2.56-7.02-4.5c-1.98-1.94-3.52-4.2-4.62-6.78
			c-1.1-2.58-1.65-5.41-1.65-8.49c0-3.08,0.55-5.91,1.65-8.49c1.1-2.58,2.64-4.84,4.62-6.78c1.98-1.94,4.31-3.44,6.99-4.5
			c2.68-1.06,5.62-1.59,8.82-1.59c3.16,0,6.08,0.53,8.76,1.59c2.68,1.06,5.01,2.55,6.99,4.47c1.98,1.92,3.52,4.18,4.62,6.78
			c1.1,2.6,1.65,5.44,1.65,8.52c0,3.08-0.55,5.92-1.65,8.52c-1.1,2.6-2.64,4.86-4.62,6.78c-1.98,1.92-4.31,3.41-6.99,4.47
			C1146.16,180.07,1143.24,180.6,1140.08,180.6z M1140.08,176.64c2.52,0,4.85-0.43,6.99-1.29c2.14-0.86,4-2.08,5.58-3.66
			c1.58-1.58,2.81-3.42,3.69-5.52c0.88-2.1,1.32-4.41,1.32-6.93s-0.44-4.83-1.32-6.93c-0.88-2.1-2.11-3.94-3.69-5.52
			c-1.58-1.58-3.44-2.8-5.58-3.66c-2.14-0.86-4.47-1.29-6.99-1.29s-4.86,0.43-7.02,1.29c-2.16,0.86-4.04,2.08-5.64,3.66
			c-1.6,1.58-2.84,3.42-3.72,5.52c-0.88,2.1-1.32,4.41-1.32,6.93c0,2.48,0.44,4.78,1.32,6.9c0.88,2.12,2.12,3.97,3.72,5.55
			c1.6,1.58,3.48,2.8,5.64,3.66C1135.22,176.21,1137.56,176.64,1140.08,176.64z"/>
		<path d="M1172.06,180.24v-42h4.44v38.16h23.52v3.84H1172.06z"/>
		<path d="M1225.76,180.6c-3.16,0-6.09-0.53-8.79-1.59c-2.7-1.06-5.04-2.56-7.02-4.5c-1.98-1.94-3.52-4.2-4.62-6.78
			c-1.1-2.58-1.65-5.41-1.65-8.49c0-3.08,0.55-5.91,1.65-8.49c1.1-2.58,2.64-4.84,4.62-6.78c1.98-1.94,4.31-3.44,6.99-4.5
			c2.68-1.06,5.62-1.59,8.82-1.59c3.16,0,6.08,0.53,8.76,1.59c2.68,1.06,5.01,2.55,6.99,4.47c1.98,1.92,3.52,4.18,4.62,6.78
			c1.1,2.6,1.65,5.44,1.65,8.52c0,3.08-0.55,5.92-1.65,8.52c-1.1,2.6-2.64,4.86-4.62,6.78c-1.98,1.92-4.31,3.41-6.99,4.47
			C1231.84,180.07,1228.92,180.6,1225.76,180.6z M1225.76,176.64c2.52,0,4.85-0.43,6.99-1.29c2.14-0.86,4-2.08,5.58-3.66
			c1.58-1.58,2.81-3.42,3.69-5.52c0.88-2.1,1.32-4.41,1.32-6.93s-0.44-4.83-1.32-6.93c-0.88-2.1-2.11-3.94-3.69-5.52
			c-1.58-1.58-3.44-2.8-5.58-3.66c-2.14-0.86-4.47-1.29-6.99-1.29s-4.86,0.43-7.02,1.29c-2.16,0.86-4.04,2.08-5.64,3.66
			c-1.6,1.58-2.84,3.42-3.72,5.52c-0.88,2.1-1.32,4.41-1.32,6.93c0,2.48,0.44,4.78,1.32,6.9c0.88,2.12,2.12,3.97,3.72,5.55
			c1.6,1.58,3.48,2.8,5.64,3.66C1220.9,176.21,1223.24,176.64,1225.76,176.64z"/>
		<path d="M1273.46,180.24v-42h15.72c3.56,0,6.62,0.57,9.18,1.71c2.56,1.14,4.53,2.78,5.91,4.92c1.38,2.14,2.07,4.73,2.07,7.77
			c0,2.96-0.69,5.51-2.07,7.65c-1.38,2.14-3.35,3.79-5.91,4.95c-2.56,1.16-5.62,1.74-9.18,1.74h-13.26l1.98-2.1v15.36H1273.46z
			 M1277.9,165.24l-1.98-2.16h13.14c4.2,0,7.39-0.91,9.57-2.73c2.18-1.82,3.27-4.39,3.27-7.71c0-3.36-1.09-5.96-3.27-7.8
			c-2.18-1.84-5.37-2.76-9.57-2.76h-13.14l1.98-2.1V165.24z"/>
		<path d="M1334.9,180.6c-3.16,0-6.09-0.53-8.79-1.59c-2.7-1.06-5.04-2.56-7.02-4.5c-1.98-1.94-3.52-4.2-4.62-6.78
			c-1.1-2.58-1.65-5.41-1.65-8.49c0-3.08,0.55-5.91,1.65-8.49c1.1-2.58,2.64-4.84,4.62-6.78c1.98-1.94,4.31-3.44,6.99-4.5
			c2.68-1.06,5.62-1.59,8.82-1.59c3.16,0,6.08,0.53,8.76,1.59c2.68,1.06,5.01,2.55,6.99,4.47c1.98,1.92,3.52,4.18,4.62,6.78
			c1.1,2.6,1.65,5.44,1.65,8.52c0,3.08-0.55,5.92-1.65,8.52c-1.1,2.6-2.64,4.86-4.62,6.78c-1.98,1.92-4.31,3.41-6.99,4.47
			C1340.98,180.07,1338.06,180.6,1334.9,180.6z M1334.9,176.64c2.52,0,4.85-0.43,6.99-1.29c2.14-0.86,4-2.08,5.58-3.66
			c1.58-1.58,2.81-3.42,3.69-5.52c0.88-2.1,1.32-4.41,1.32-6.93s-0.44-4.83-1.32-6.93c-0.88-2.1-2.11-3.94-3.69-5.52
			c-1.58-1.58-3.44-2.8-5.58-3.66c-2.14-0.86-4.47-1.29-6.99-1.29s-4.86,0.43-7.02,1.29c-2.16,0.86-4.04,2.08-5.64,3.66
			c-1.6,1.58-2.84,3.42-3.72,5.52c-0.88,2.1-1.32,4.41-1.32,6.93c0,2.48,0.44,4.78,1.32,6.9c0.88,2.12,2.12,3.97,3.72,5.55
			c1.6,1.58,3.48,2.8,5.64,3.66C1330.04,176.21,1332.38,176.64,1334.9,176.64z"/>
		<path d="M1366.88,180.24v-42h15.72c3.56,0,6.62,0.57,9.18,1.71c2.56,1.14,4.53,2.78,5.91,4.92c1.38,2.14,2.07,4.73,2.07,7.77
			c0,2.96-0.69,5.51-2.07,7.65c-1.38,2.14-3.35,3.78-5.91,4.92c-2.56,1.14-5.62,1.71-9.18,1.71h-13.26l1.98-2.04v15.36H1366.88z
			 M1371.32,165.24l-1.98-2.1h13.14c4.2,0,7.39-0.92,9.57-2.76c2.18-1.84,3.27-4.42,3.27-7.74c0-3.36-1.09-5.96-3.27-7.8
			c-2.18-1.84-5.37-2.76-9.57-2.76h-13.14l1.98-2.1V165.24z M1395.56,180.24l-10.8-15.24h4.8l10.86,15.24H1395.56z"/>
		<path d="M1430.42,176.4h25.26v3.84h-29.7v-42h28.8v3.84h-24.36V176.4z M1429.94,157.02h22.2v3.78h-22.2V157.02z"/>
		<path d="M1477.7,180.6c-3.12,0-6.11-0.51-8.97-1.53c-2.86-1.02-5.07-2.33-6.63-3.93l1.74-3.42c1.48,1.44,3.47,2.65,5.97,3.63
			c2.5,0.98,5.13,1.47,7.89,1.47c2.64,0,4.79-0.33,6.45-0.99c1.66-0.66,2.88-1.55,3.66-2.67c0.78-1.12,1.17-2.36,1.17-3.72
			c0-1.64-0.47-2.96-1.41-3.96c-0.94-1-2.17-1.79-3.69-2.37c-1.52-0.58-3.2-1.09-5.04-1.53c-1.84-0.44-3.68-0.91-5.52-1.41
			c-1.84-0.5-3.53-1.17-5.07-2.01c-1.54-0.84-2.78-1.95-3.72-3.33c-0.94-1.38-1.41-3.19-1.41-5.43c0-2.08,0.55-3.99,1.65-5.73
			c1.1-1.74,2.79-3.14,5.07-4.2c2.28-1.06,5.2-1.59,8.76-1.59c2.36,0,4.7,0.33,7.02,0.99c2.32,0.66,4.32,1.57,6,2.73l-1.5,3.54
			c-1.8-1.2-3.71-2.08-5.73-2.64c-2.02-0.56-3.97-0.84-5.85-0.84c-2.52,0-4.6,0.34-6.24,1.02c-1.64,0.68-2.85,1.59-3.63,2.73
			c-0.78,1.14-1.17,2.43-1.17,3.87c0,1.64,0.47,2.96,1.41,3.96c0.94,1,2.18,1.78,3.72,2.34c1.54,0.56,3.23,1.06,5.07,1.5
			c1.84,0.44,3.67,0.92,5.49,1.44c1.82,0.52,3.5,1.19,5.04,2.01c1.54,0.82,2.78,1.91,3.72,3.27c0.94,1.36,1.41,3.14,1.41,5.34
			c0,2.04-0.56,3.93-1.68,5.67c-1.12,1.74-2.83,3.14-5.13,4.2C1484.25,180.07,1481.3,180.6,1477.7,180.6z"/>
		<path d="M1511.18,180.24v-38.16h-14.76v-3.84h33.96v3.84h-14.76v38.16H1511.18z"/>
		<path d="M1530.74,180.24l19.2-42h4.38l19.2,42h-4.68l-17.64-39.42h1.8l-17.64,39.42H1530.74z M1538.3,169.02l1.32-3.6h24.42
			l1.32,3.6H1538.3z"/>
		<path d="M1607.78,180.6c-3.12,0-6.11-0.51-8.97-1.53c-2.86-1.02-5.07-2.33-6.63-3.93l1.74-3.42c1.48,1.44,3.47,2.65,5.97,3.63
			c2.5,0.98,5.13,1.47,7.89,1.47c2.64,0,4.79-0.33,6.45-0.99c1.66-0.66,2.88-1.55,3.66-2.67c0.78-1.12,1.17-2.36,1.17-3.72
			c0-1.64-0.47-2.96-1.41-3.96c-0.94-1-2.17-1.79-3.69-2.37c-1.52-0.58-3.2-1.09-5.04-1.53c-1.84-0.44-3.68-0.91-5.52-1.41
			c-1.84-0.5-3.53-1.17-5.07-2.01c-1.54-0.84-2.78-1.95-3.72-3.33c-0.94-1.38-1.41-3.19-1.41-5.43c0-2.08,0.55-3.99,1.65-5.73
			c1.1-1.74,2.79-3.14,5.07-4.2c2.28-1.06,5.2-1.59,8.76-1.59c2.36,0,4.7,0.33,7.02,0.99c2.32,0.66,4.32,1.57,6,2.73l-1.5,3.54
			c-1.8-1.2-3.71-2.08-5.73-2.64c-2.02-0.56-3.97-0.84-5.85-0.84c-2.52,0-4.6,0.34-6.24,1.02c-1.64,0.68-2.85,1.59-3.63,2.73
			c-0.78,1.14-1.17,2.43-1.17,3.87c0,1.64,0.47,2.96,1.41,3.96c0.94,1,2.18,1.78,3.72,2.34c1.54,0.56,3.23,1.06,5.07,1.5
			c1.84,0.44,3.67,0.92,5.49,1.44c1.82,0.52,3.5,1.19,5.04,2.01c1.54,0.82,2.78,1.91,3.72,3.27c0.94,1.36,1.41,3.14,1.41,5.34
			c0,2.04-0.56,3.93-1.68,5.67c-1.12,1.74-2.83,3.14-5.13,4.2C1614.33,180.07,1611.38,180.6,1607.78,180.6z"/>
		<path d="M1637.54,176.4h25.26v3.84h-29.7v-42h28.8v3.84h-24.36V176.4z M1637.06,157.02h22.2v3.78h-22.2V157.02z"/>
		<path d="M1673.23,180.24v-42h3.66l19.2,32.76h-1.92l19.02-32.76h3.66v42h-4.26V144.9h1.02l-17.52,30h-2.1l-17.64-30h1.14v35.34
			H1673.23z"/>
		<path d="M1723.81,180.24l19.2-42h4.38l19.2,42h-4.68l-17.64-39.42h1.8l-17.64,39.42H1723.81z M1731.38,169.02l1.32-3.6h24.42
			l1.32,3.6H1731.38z"/>
		<path d="M1773.55,180.24v-42h3.66l28.98,36.48h-1.92v-36.48h4.38v42h-3.66l-28.92-36.48h1.92v36.48H1773.55z"/>
		<path d="M1815.61,180.24l19.2-42h4.38l19.2,42h-4.68l-17.64-39.42h1.8l-17.64,39.42H1815.61z M1823.17,169.02l1.32-3.6h24.42
			l1.32,3.6H1823.17z"/>
	</g>
</g>
<text transform="matrix(1 0 0 1 835.1113 355.6826)" class="st4 st5">HASTA 75% OFF EN TODA LA PAGINA</text>
<g>
	<g>
		<g>
			<path class="st6" d="M1482.74,527.92c0.23,3.25-0.76,6.29-2.25,9.16c-6.32,12.14-16.33,20.94-29.61,26.75
				c-0.4,0.17-0.86,0.22-1.29,0.32c0.59-2.74-1.16-4.36-3.89-3.58c-2.06,0.59-2.18,2.09-2.05,3.71c-3.74-0.7-6.91-2.53-10.02-4.38
				c-9.52-5.69-18.24-12.16-24.09-21.3c-0.62-0.97-1.38-1.91-1.32-3.12c1.86,1.06,2.25,3.64,4.89,3.91c0.04,0.38-0.09,0.9,0.14,1.13
				c2.33,2.36,4.71,4.68,7.86,6.19c0.29,0.19,0.59,0.38,0.88,0.57c2.99,3.04,7.22,4.45,10.83,6.66c0.94,0.58,1.6,0.31,1.71-0.89
				c0.11-1.26,0.37-2.53,1.65-3.35c-0.04,0.47,0,0.96-0.13,1.41c-1.11,3.8-0.97,4.12,3.16,5.51c1.58,0.53,3.25,0.86,4.87,1.3
				c1.4,0.37,2.04-0.18,2.08-1.41c0.06-1.79,0.08-3.57,0.13-5.36c0.02-0.64-0.32-1-0.91-1.35c-4.24-2.48-5.34-2.5-9.23-0.07
				c-0.11-0.79,0.21-1.49,0.86-1.94c0.96-0.64,0.73-1.38,0.01-1.74c-2.8-1.4-5.2-3.44-8.32-4.32c-0.15-0.8-0.66-1.25-1.55-1.35
				c-3.18-3.69-7.07-4.93-11.94-2.91c1.1-2.23,3.91-1.08,5.59-2.35c-1.66-2.15-3.59-4.17-4.18-6.87c-0.2-0.89-1.1-1.2-1.89-1.56
				c0-0.21,0-0.43-0.01-0.64c0.63,0.04,1.49,0.52,1.64-0.53c0.35-2.4,2.2-4.09,3.41-6.08c0.6-0.07,0.87-0.41,0.91-0.93
				c1.43-1.11,2.62-2.59,4.79-2.56c0.79,0.98,2.36,0.16,3.12,1.03c1.6,1.84,3.36,1.21,5.18,0.43l0.17-0.02l0.15,0.07
				c0.27,1.13,0.53,2.36,2.12,2.43c2.24,0.1,3.52,1.79,5.4,2.51c2.09,0.8,4.01,1.97,5.98,3.01c0.37,0.2,0.63,0.27,0.87-0.09
				c1.53-2.22,3.93-3.57,6.25-4.95c3.31-1.96,6.44-4.3,11.04-3.01c1.83,0.52,3.3,2.06,5.45,1.68c1.06,2.16,2.54,4.24,1.62,6.79
				c0.16,0.33,0.31,0.66,0.47,1c-1.91,1.65-2.11,4.19-3.78,5.99c-0.51,0.55-1.5,1.27-0.89,2.07c0.44,0.6,1.49,0.03,2.25,0.16
				c1.63,0.28,3.79-0.67,4.59,1.59c-1.53-0.35-2.92-1-4.59-1.06c-4.81-0.15-6.66,3.41-9.39,5.89c-0.2,0.26-0.42,0.51-0.62,0.77
				c-2.83,0.88-4.67,3.1-7.21,4.39c-1.17,0.59,0.58,0.72,0.3,1.2c-0.53-0.01-1.06-0.05-1.59-0.02c-1.98,0.08-5.32,2.24-5.34,3.5
				c-0.03,1.69,0.05,3.39,0.04,5.09c0,1.3,0.52,1.63,1.99,1.33c1.93-0.39,3.77-0.91,5.58-1.59c3.54-1.33,3.6-1.47,2.43-4.82
				c0.19-0.18,0.39-0.37,0.58-0.55c0.34,0.65,0.82,1.28,0.98,1.97c0.26,1.11,0.78,1.08,1.62,0.54c2.97-1.87,6.12-3.54,8.15-6.4
				c0.19-0.17,0.39-0.34,0.59-0.5c2.88-1.29,4.24-3.91,6.33-5.89c1.36-1.29,1.68-2.54,0.12-3.86c0.94-0.51,1.97,1.58,2.87-0.07
				c1.36-2.48,3.4-4.73,3.24-7.73c0.13-0.28,0.26-0.56,0.39-0.83c0.26,0,0.53-0.01,0.79-0.02L1482.74,527.92z M1431.04,538.1
				c-0.46-0.27-0.95-1.08-1.44-0.49c-0.47,0.56,0.44,0.8,0.91,1.06c4.19,3.67,9.6,5.58,14.48,8.25c0.62,0.34,1.5,1.51,2.19,0.36
				c0.52-0.88-0.68-1.3-1.44-1.69C1440.86,543.06,1435.66,541.06,1431.04,538.1z M1462.87,519.95c4.93,0.85,7.02,3.43,6.2,7.82
				c-0.11,0.59-0.05,1.25,0.74,1.33c0.84,0.09,1.14-0.51,1.37-1.2c0.83-2.51-0.23-5.84-2.47-7.49
				C1466.83,519.01,1464.86,518.81,1462.87,519.95z M1424.53,519.07c-2.87,0.2-4.57,1.82-5.32,4.77c-0.84,3.34,1.41,8.67,4.73,10.47
				C1422,529.02,1417.12,523.83,1424.53,519.07z M1468.77,531.14c0.14-0.66-0.06-1.37-0.6-1.17c-1.36,0.49-1.98,1.71-2.43,2.9
				c-0.21,0.55,0.34,0.89,0.94,0.82C1468.38,533.46,1468.36,532.08,1468.77,531.14z"/>
			<path class="st7" d="M1434.09,517.46l-0.15-0.07l-0.17,0.02c-2.53-1.6-5.22-2.45-8.29-1.46c-2.17-0.02-3.36,1.45-4.79,2.56
				c-1.58-1.37-2.64-3.55-5.97-2.82c2.44,0.77,3.75,2.26,5.06,3.74c-1.2,1.99-3.06,3.68-3.41,6.08c-0.15,1.04-1.01,0.56-1.64,0.53
				c-2.73-0.87-5.15-0.24-7.39,1.26c-0.09-5.01,2.3-9.08,6.14-12.42c3.15-2.74,6.7-5.07,11.01-6.19c1.35,1.76,3.04,3.24,4.35,5.01
				c0.01-2.4-1.52-3.81-3.33-5.04c2.73-0.76,9.74,1.02,11.28,2.88c0.86,2.6,1.71,5.2,2.57,7.81
				C1437.45,519.08,1436.18,517.34,1434.09,517.46z"/>
			<path class="st8" d="M1376.09,626.19c0.01-2.6,0.09-5.2-0.02-7.8c-0.05-1.05,0.16-1.54,1.39-1.5c2.05,0.07,4.1-0.1,6.15,0.28
				c2.4,0.45,4.42,1.22,5.2,3.61c0.82,2.53-0.48,4.5-2.5,5.67c-2.04,1.17-1.47,1.92-0.41,3.13c1.11,1.27,2.15,2.6,3.16,3.93
				c0.44,0.59,0.76,1.26,1.14,1.89c0.01,0,0.05-0.01,0.09-0.01c-0.73-0.2-1.3,0.36-1.89,0.38c-0.47,0.02-0.91-0.59-1.27-1.1
				c-1.4-1.97-3.06-3.79-4.39-5.79c-0.89-1.35-2.13-1.46-3.43-1.16c-1.35,0.31-0.69,1.49-0.74,2.29c-0.08,1.21,0.1,2.44,0.02,3.65
				c-0.04,0.71,0.71,1.84-1.14,1.82c-1.62-0.02-1.35-0.85-1.33-1.76c0.04-2.52,0.02-5.04,0.03-7.55
				C1376.11,626.19,1376.1,626.19,1376.09,626.19z M1378.52,622.11c0.19,1.73-0.99,3.97,2.7,3.69c3.66-0.28,5.33-1.12,5.32-3.48
				c-0.02-2.39-1.69-3.21-5.63-3.47C1377.36,618.62,1378.9,620.87,1378.52,622.11z"/>
			<path class="st9" d="M1427.76,635.83c-2.36,0.8-3.1-0.32-3.43-1.83c-0.48-2.28-1.84-3.29-4.43-2.83c-0.6,0.11-1.28,0.13-1.87,0
				c-3.34-0.76-4.85,0.99-5.51,3.5c-0.27,1-0.77,0.98-1.44,0.86c-0.87-0.16-1.07-0.66-0.68-1.45c2.4-4.77,3.87-9.84,5.99-14.69
				c0.41-0.93,0.24-2.32,2.11-2.38c2.03-0.06,1.62,1.3,2.19,2.32C1423.67,624.6,1424.94,630.45,1427.76,635.83z M1418.55,619.63
				c-1.14,2.98-2.11,5.53-3.08,8.08c-0.18,0.48-0.76,1.29,0.1,1.37c2.02,0.19,4.08,0.14,6.1,0.03c0.72-0.04,0.45-0.78,0.29-1.2
				C1420.94,625.3,1420.2,622.56,1418.55,619.63z"/>
			<path class="st7" d="M1414.74,526.69c0.79,0.36,1.7,0.67,1.89,1.56c0.6,2.7,2.52,4.73,4.18,6.87c-1.68,1.27-4.48,0.12-5.59,2.35
				l0.04-0.03c-0.55-0.15-0.95-0.04-1.12,0.51l0.04-0.03c-1.03,0.1-1.43,0.58-1.1,1.5l0.04-0.03c-2.63-0.27-3.03-2.84-4.89-3.91
				c-1.68-2.13-1.06-4.52-0.92-6.85C1409.49,527.04,1411.95,526.34,1414.74,526.69z"/>
			<path class="st9" d="M1371.16,632.12c0.68,1.5,0.23,2.3-1.18,2.88c-6,2.47-13.58,0.74-14.23-7.09c-0.26-3.09,0.43-5.83,2.55-8.45
				c2.24-2.77,9.37-2.98,12.11-1.5c0.93,0.51,0.92,1.12,0.58,1.84c-0.54,1.16-1.2,0.21-1.67-0.02c-5.09-2.5-9.98-0.39-10.88,4.79
				c-0.45,2.61-0.41,5.23,1.71,7.31C1362.97,634.66,1366.19,634.69,1371.16,632.12z"/>
			<path class="st9" d="M1534.32,617.9c1.9,0.37,0.98,1.49,0.97,2.53c-1.99-0.48-3.68-1.35-5.63-1.16c-1.75,0.18-3.15,0.74-3.5,2.47
				c-0.34,1.71,0.88,2.45,2.4,3.05c1.28,0.51,2.58,0.96,3.84,1.54c3.3,1.54,4.37,2.56,4.12,5.07c-0.22,2.29-2.48,4.52-5.24,4.86
				c-1.75,0.22-3.53,0.2-5.31-0.25c-1.87-0.47-3.06-1.15-2.33-3.11c2.71,0.91,5.41,2.28,8.36,0.87c0.94-0.45,2.35-0.83,2.24-2.11
				c-0.11-1.38-0.53-2.75-2.24-3.32c-1.42-0.47-2.92-0.84-4.23-1.49c-1.9-0.94-4.05-1.81-4.19-4.22c-0.16-2.54,1.38-4.04,3.83-4.93
				c0.5,0.71,1.04,0.67,1.6,0.06C1530.79,617.24,1532.52,618.81,1534.32,617.9z"/>
			<path class="st9" d="M1475.21,635.74c-4.66,1.33-7.51,0.18-10.17-4.09c0.61-0.75,0.32-1.48,0.08-2.29
				c-0.67-2.27-1.33-4.57,0.59-6.68c0.39-0.43,0.35-0.91-0.31-1.18c0.47-1.36,1.4-2.36,2.84-2.96c1.96,0.1,3.62-0.81,5.39-1.34
				c5.24,0.52,9.27,6.15,7.5,10.85c-0.43,1.13,0.14,2.46-0.95,3.39c-0.07,0.1-0.12,0.2-0.14,0.32l-0.02,0.04
				c-1.32-0.18-1.11-1-0.82-1.76c0.23-0.61,0.52-1.19-0.26-1.65c-0.16-1.6-0.14-3.24-0.52-4.8c-0.67-2.79-3.04-4.5-5.82-4.46
				c-2.92,0.05-5.25,1.9-5.85,4.74c-0.3,1.43-0.34,2.88-0.16,4.34c0.51,4.09,2.51,5.86,7.03,6.09c0.48,1.29,2.51-1.01,2.69,0.96
				l-0.19,0.06C1475.79,635.46,1475.5,635.6,1475.21,635.74z"/>
			<path class="st9" d="M1430.78,623.92c1.64-5.76,7.29-8.45,13.18-6.27c0.48,0.18,0.96,0.42,1.39,0.7
				c0.72,0.48,0.62,1.15,0.29,1.75c-0.5,0.89-1.02,0.1-1.52-0.07c-0.92-0.3-1.81-0.84-2.75-0.91c-4.68-0.34-7.04,0.5-8.23,5.46
				c-0.37,1.55-0.23,3.06,0.17,4.58c1.01,3.91,4.78,5.87,8.96,4.6c1.16-0.35,2.24-0.95,3.56-1.52c0.54,1.04,0.66,1.87-0.55,2.65
				c-5.06,3.3-12.6,0.89-14.26-4.6C1431.3,628.16,1431.33,626.03,1430.78,623.92z"/>
			<path class="st7" d="M1467.76,509.4c4.63,1.06,8.14,3.42,10.33,7.33c-2.55-0.15-5.03-0.1-6.91,1.83l0.02-0.02
				c-2.93-1.34-5.72-3.13-9.29-2.54C1462.4,512.72,1464.5,510.63,1467.76,509.4z"/>
			<path class="st7" d="M1472.81,525.82c0.91-2.55-0.55-4.63-1.62-6.79c0-0.17,0-0.34,0.01-0.5l-0.02,0.02
				c2.87-0.3,5.68-1.5,8.64-0.47l-0.05-0.02c0.14,0.12,0.28,0.24,0.41,0.37c1.43,2.74,2.5,5.58,2.66,8.64
				c-0.31,0.26-0.34,0.56-0.14,0.89c-0.26,0-0.53,0.01-0.79,0.02c-0.92-1.66-2.57-2.41-4.45-2.53
				C1475.93,525.34,1474.37,525.67,1472.81,525.82z"/>
			<path class="st10" d="M1475.44,671.04c-1.06-0.66-1.22-1.7-1.45-2.73c-0.11-0.5,0.35-1.26-0.46-1.46
				c-0.91-0.22-1.08,0.62-1.44,1.13c-0.93,1.32-2.24,2.28-3.73,3c-3.49,1.71-6.48,0.99-8.66-2.03c-0.28-0.4-0.29-1.25-1.25-0.76
				c0.01-0.39,0.02-0.77,0.02-1.15c1.15-1.7,0.68-3.84,1.86-5.53c0.31,0.02,0.61,0.04,0.92,0.05c-0.05,1.77-0.24,3.55-0.1,5.31
				c0.24,3.21,2.85,4.47,6.03,3.01c1.36-0.63,2.34-1.93,3.62-2.4c3.39-1.26,3.57-4.19,4.84-6.59c0.77-1.44,1.48-2.96,3.12-3.83
				c0.3,0.23,0.6,0.45,0.9,0.68c-3.09,3.77-4.91,7.82-3.39,12.61C1475.99,670.59,1475.72,670.81,1475.44,671.04z"/>
			<path class="st8" d="M1395.14,627.27c0-1.16-0.01-2.32-0.01-3.49c1.07-1.35,0.44-2.9,0.52-4.35c0.07-1.41,0.66-2.06,2.2-1.99
				c2.61,1.11,5.38,0.22,8.05,0.52c0.19,0.02,0.39,0.04,0.59,0.05c0.11,0.15,0.09,0.28-0.05,0.4c-2.85,0.37-5.78-0.56-8.58,0.49
				c-0.93,1.52-0.34,3.17-0.48,4.77c-0.09,1.04,0.72,1.12,1.59,1.13c1.79,0.02,3.56,0.09,5.35,0.14c0.03,1.24-0.83,1.29-1.91,1.35
				c-1.53,0.08-3.14-0.46-4.6,0.37c-0.98,2.09-0.36,4.28-0.41,6.42c-0.02,1.04,1.02,0.9,1.8,0.91c2.39,0.04,4.79,0.07,7.18,0.1
				c0.1,1.21-0.63,1.51-1.8,1.45c-2.55-0.11-5.11,0-7.67-0.17c-1.76-0.12-1.78-0.64-1.53-1.95
				C1395.79,631.38,1396.06,629.29,1395.14,627.27z"/>
			<path class="st7" d="M1455.58,510.58c2.04-1.6,7.38-2.25,9.71-1.19c-2.46,1.63-3.87,3.85-4.43,6.55
				c-1.39,0.54-2.76,1.15-4.18,1.61c-1.3,0.42-2.12,1.88-3.79,1.48c0.07-0.14,0.1-0.28,0.1-0.44c0.96-2.37,1.29-4.95,2.97-7.08
				C1456.27,511.12,1456.09,510.76,1455.58,510.58z"/>
			<path class="st10" d="M1426.19,670.27c-0.83-0.74-1.35-0.29-1.94,0.33c-1.06,1.1-2.31,1.76-4.01,1.15
				c-1.7-0.61-2.43-1.87-2.62-3.39c-0.44-3.43,0.55-6.55,2.78-9.34c0.39,0.18,0.77,0.36,1.16,0.54c-1.5,2.71-2.5,5.54-2.25,8.62
				c0.08,0.97,0.21,2.07,1.4,2.42c1.27,0.37,1.9-0.6,2.52-1.38c1.1-1.39,1.78-2.96,2.47-4.54c0.31-0.72-0.12-2.41,1.6-1.92
				c1.28,0.37,0.35,1.49,0.23,2.29c-0.15,1.03-0.32,2.07-0.42,3.11c-0.15,1.52,0.56,2.3,2.33,2.08c-0.24,0.48-0.55,0.99,0.46,0.99
				c-0.43,0.4-0.96,0.53-1.56,0.43c-0.34-0.65-0.88-0.98-1.69-0.86l0.03,0.02c-0.09-0.37,0.36-0.83-0.23-1.1
				C1426.36,669.89,1426.28,670.08,1426.19,670.27z"/>
			<path class="st6" d="M1459.13,618.93c-0.88,0.47-2.57-0.73-2.79,1.11c-0.77,3.9-0.79,7.81-0.01,11.72
				c-0.74,2.23,0.77,2.6,2.67,2.66c-1.86,0.83-3.78,1.05-5.88,1.14c-2.6,0.11,0.19-1.04-0.52-1.2c1.05-0.08,1.22-0.7,1.21-1.52
				c-0.01-4.11-0.01-8.22,0.02-12.34c0.01-0.94-0.18-1.56-1.43-1.52c-0.85,0.03-2.02,0.16-1.84-1.08c0.18-1.21,1.31-0.74,2.14-0.72
				c1.26,0.87,2.7,0.29,4.06,0.41C1457.85,617.68,1458.91,617.64,1459.13,618.93z"/>
			<path class="st9" d="M1496.61,631.93c-2.27-2.92-4.51-5.85-6.84-8.73c-0.39-0.48-0.47-1.61-1.71-1.11c-0.15-0.01-0.3-0.01-0.46,0
				c-0.1-0.67,0.23-1.44-0.51-1.97c-1.1,1.11-0.6,2.47-0.54,3.69c0.17,3.17-0.73,6.4,0.47,9.53c0,0.15,0,0.29-0.01,0.43
				c-0.7,0.51-0.69,1.02,0.01,1.53c0.01,0.11,0.01,0.22,0.02,0.33c-0.35,0.03-0.72,0.06-1.07,0.09c-0.02-5.52-0.05-11.04-0.04-16.56
				c0-0.48-0.56-1.28,0.39-1.42c0.81-0.12,1.88-0.41,2.44,0.48c2.73,4.35,6.6,8,9.14,12.46
				C1497.24,630.89,1496.71,631.22,1496.61,631.93z"/>
			<path class="st10" d="M1409.99,649.17c0.41-0.68,0.95-1.27,1.89-1c0.92,0.27,1.01,1.06,1.03,1.81c0.07,2.78-0.9,5.44-1.3,8.17
				c-0.67,4.5-1.62,8.98,0.01,13.46c0.15,0.42,0.18,0.89-0.21,1.1c-0.54,0.3-1.1-0.09-1.38-0.44c-0.91-1.18-0.96-2.6-1.02-3.97
				c-0.22-5.05,0.5-10.02,1.77-14.93c0.25-0.96,0.47-1.89,0.38-2.88C1410.75,650.08,1410.68,649.41,1409.99,649.17z"/>
			<path class="st11" d="M1444.39,593.77c-0.38-3.3-0.21-6.61-0.12-9.91c1.85,0.61,3.12,3.06,5.66,1.48c0,2.47,0,4.95-0.01,7.42
				C1448,592.71,1446.62,595.15,1444.39,593.77z"/>
			<path class="st11" d="M1449.57,575.11c0.78,3.09,0.3,6.22,0.32,9.33c-2.42,0.61-3.51-1.92-5.64-1.99c0-2.3,0-4.61,0.01-6.91
				C1446.02,575.45,1447.87,576,1449.57,575.11z"/>
			<path class="st12" d="M1397.76,651.01c-1.41,0.09-1.21,1.26-1.48,1.99c-2.14,5.75-4.19,11.53-6.32,17.29
				c-0.24,0.65-0.16,1.98-1.45,1.57c-1.09-0.34-0.2-1.28-0.01-1.89c2.28-7.24,4.99-14.34,8.06-21.33
				C1397.47,649.22,1397.41,650.2,1397.76,651.01z"/>
			<path class="st8" d="M1511.79,619.15c-1.4-0.01-2.15,0.45-1.92,1.89c0.14,0.87,0.11,1.79-0.01,2.66
				c-0.15,1.07,0.25,1.42,1.42,1.38c1.87-0.06,3.74-0.02,5.61,0c0.59,0.01,1.34-0.11,1.28,0.78c-0.05,0.69-0.67,0.72-1.17,0.65
				c-1.37-0.21-2.61,0.68-3.88,0.48c-3.18-0.49-3.37,1.06-3.29,3.31c0.15,3.94,0.03,3.94,4.36,3.96c1.51,0.01,3.03,0.05,4.54,0.08
				c-0.05,0.64,0.02,1.45-0.99,1.41c-2.89-0.1-5.84,0.5-8.68-0.44c0.01-4.71,0.13-9.42-0.04-14.12c-0.06-1.68,0.6-2.49,2.18-2.94
				c0.2,0,0.4-0.01,0.6-0.01C1511.8,618.55,1511.79,618.85,1511.79,619.15z"/>
			<path class="st10" d="M1397.76,651.01c-0.35-0.81-0.29-1.79-1.2-2.37c0.11-0.81,0.19-1.79,1.34-1.77
				c1.19,0.02,1.16,1.12,1.26,1.84c0.5,3.67,0.81,7.36,1.4,11.01c0.15,0.92-0.71,2.59,1.49,2.66c0.21,0.52,0.43,1.03,0.64,1.55
				c0,0,0.03-0.04,0.02-0.04c-0.42,0.1-0.58,0.37-0.59,0.74c-1.36,1.38-2.18,0.57-2.74-0.63c-0.81-1.74-0.89-3.63-1.08-5.48
				C1398.03,656.04,1397.93,653.52,1397.76,651.01z"/>
			<path class="st7" d="M1446.43,518.65c2.11-2.89,4.35-5.64,8.07-7c-0.58,2.16-2.21,4.02-2.13,6.35c-0.03,0.49-0.06,0.98-0.09,1.47
				c-0.81,1.76-2.55,2.52-4.26,3.33c-1-0.94-0.4-2.49-1.56-3.37l0.02,0.03C1446.45,519.2,1446.44,518.92,1446.43,518.65z"/>
			<path class="st7" d="M1438.51,513.06c2.09,0.05,2.85,1.76,4.17,2.75c1.15,0.87,2.23,1.83,3.34,2.75
				c-0.02,0.37-0.14,0.78,0.44,0.91l-0.02-0.03c0.01,1.32,0.03,2.63,0.04,3.95c-2.06-1.27-4.84-1.6-6.11-3.89
				C1439.76,517.35,1439.14,515.2,1438.51,513.06z"/>
			<path class="st10" d="M1491.55,668.51c2.99,2.43,5.23,2.02,7.03-0.23c1.29-1.62,0.98-3.46-0.95-4.49
				c-0.98-0.52-2.1-0.85-3.15-1.26c0.4-0.36,1.24-0.67,0.12-1.16c2.97,0.14,4.87,1.32,6.04,3.74c1.18,2.43-0.37,4.83-4.06,6.35
				c-2.36,0.96-4.81,0.13-5.89-2C1490.97,669.14,1491.26,668.83,1491.55,668.51z"/>
			<path class="st6" d="M1496.61,631.85c0.1-0.63,0.63-0.97,1.3-1.18l-0.03,0.07c0.19,0.2,0.39,0.4,0.58,0.59
				c2.1,0.83,0.71-1.13,1.4-1.43c0.86-0.19,0.94,0.8,1.58,0.91l0.03-10.61c-0.43,2.26-0.43,4.52-0.44,6.78c0,0.98,0.13,2-1.15,2.49
				c-0.07-3.55-0.1-7.1-0.23-10.64c-0.06-1.59,1.49-0.81,2.36-1.53l-0.04,18.05c-0.44-0.66-0.52-1.32-0.6-1.98
				c-0.1,0-0.2,0-0.31,0.01c-0.03,0.63-0.07,1.26-0.1,1.89c-0.17,0.01-0.33,0.02-0.49,0.02c-0.96-0.22-0.97-1.54-2.13-1.52
				C1498.36,632.69,1498.08,631.86,1496.61,631.85L1496.61,631.85z M1500.36,627.96l-0.54,0l0.02-8.79l0.54,0L1500.36,627.96z"/>
			<path class="st11" d="M1449.55,567.79c-0.02,2.12-0.03,4.25-0.04,6.38c-1.71,0.77-3.44,0.04-5.16,0.05
				c-0.28-2.49-0.19-4.98-0.04-7.47C1445.92,567.67,1447.54,568.55,1449.55,567.79z"/>
			<path class="st11" d="M1443.65,564.27c-0.14-1.61-0.01-3.12,2.05-3.71c2.73-0.78,4.48,0.84,3.89,3.58
				c-0.01,0.89-0.03,1.79-0.04,2.69c-1.93,0.4-3.56-0.53-5.3-0.97C1444.04,565.33,1443.85,564.8,1443.65,564.27z"/>
			<path class="st9" d="M1441.1,666.05c0.58-1.34,1.14-2.69,1.75-4.01c0.2-0.44,0.53-0.92,1.18-0.71c0.66,0.21,0.51,0.79,0.43,1.24
				c-0.31,1.66-0.72,3.3-0.95,4.97c-0.09,0.64-0.68,1.75,0.95,1.67c0.02,0.38,0.05,0.77,0.07,1.15c-1.05,0.76-2.07,1.53-2.23,2.86
				c-0.52,0.29-0.69,1.03-1.49,0.97c-0.06-0.55,0.26-1.23-0.65-1.47c0.14-0.38,0.62-0.8-0.17-1.06c1.2-1.02,2.15-2.12,1.63-3.75
				c-0.7-0.11-0.9-0.6-1-1.15l-0.02,0.05C1441,666.69,1441.14,666.42,1441.1,666.05z"/>
			<path class="st11" d="M1449.83,593.58c0.31,2.34,0.32,4.68-0.04,7.02c-1.69-1.14-3.4-1.54-5.16-0.11
				c-0.76-1.82-0.48-3.66-0.16-5.51C1446.64,595.72,1448.22,594.6,1449.83,593.58z"/>
			<path class="st12" d="M1402.69,663.94c-0.21-0.52-0.43-1.03-0.64-1.55c2.54-4.46,4.59-9.16,7.94-13.22
				c0.69,0.23,0.77,0.91,1.18,1.34c-1.37,0.25-1.63,1.4-2.14,2.28C1406.87,656.49,1404.79,660.22,1402.69,663.94z"/>
			<path class="st10" d="M1487.56,670.54c-1.65,1.58-3.33,1.99-5.01,0.06c-0.44-0.51-0.91-0.7-1.57-0.48
				c0.01-0.6,0.27-1.26-0.49-1.68c0.69-1.66,1.38-3.32,2.07-4.98c0.21-0.5,0.33-1.19,1.12-1.05c0.89,0.15,0.62,0.97,0.58,1.42
				c-0.11,1.28-0.53,2.54-0.64,3.81c-0.24,2.8,0.34,3.16,3.27,2.15C1487.11,670.04,1487.34,670.29,1487.56,670.54z"/>
			<path class="st9" d="M1450.89,670.84c-1.43-0.74-0.15-2.14-0.97-3.18c-0.54-0.68-0.77-0.17-1.12-0.22
				c-0.24-0.22-0.48-0.43-0.72-0.65c3.08-1.46,2.33-4.48,3.36-6.78c0.45-1,0.06-3.09,1.41-2.79c1.97,0.43,0.37,2.17,0.19,3.23
				c-0.57,3.25-1.83,6.4-1.37,9.77C1451.4,670.43,1451.14,670.64,1450.89,670.84z"/>
			<path class="st13" d="M1439.98,671.66c0.8,0.26,0.31,0.68,0.17,1.06c-1.6,1.1-3.62,1.8-4.62,3.48c-0.84,1.4-1.65,3.06,0.23,4.31
				c1.95,1.29,2.75-0.44,3.77-1.45c0.42,0.01,0.84,0.01,1.27,0.02c-1.54,2.89-3.22,3.52-5.79,2.19c-2.28-1.18-2.49-3.14-0.57-5.55
				C1435.88,673.9,1437.77,672.6,1439.98,671.66z"/>
			<path class="st13" d="M1494.6,661.38c1.12,0.49,0.28,0.8-0.12,1.16c-3.1-1.84-3.14-3.52,0-5.06c1.75-0.86,3.6-1.67,5.93-1.04
				c-1.52,1.72-3.83,1.41-5.53,2.35C1493.19,659.71,1493.17,660.37,1494.6,661.38z"/>
			<path class="st10" d="M1437.67,659.58c-0.91,2.69-2.64,5.19-2.19,8.18c-0.38,0.18-0.76,0.36-1.14,0.54
				c-1.01-1.89-0.01-6.13,2.18-9.26C1436.91,659.23,1437.29,659.41,1437.67,659.58z"/>
			<path class="st12" d="M1421.56,659.56c-0.39-0.18-0.77-0.36-1.16-0.54c2.26-3.38,4.25-4.08,6.66-2.31
				c1.11,0.81,1.64,1.8,1.22,3.38c-1.46-0.9-1.13-3.02-3.11-3.06C1423.22,656.99,1422.62,658.56,1421.56,659.56z"/>
			<path class="st12" d="M1437.67,659.58c-0.38-0.18-0.77-0.35-1.15-0.53c1.21-1.73,2.49-3.36,5.03-3.49
				c1.04-0.06,1.89,0.41,2.67,0.97c0.32,0.23,0.46,0.54,0.22,0.84c-0.12,0.15-0.54,0.27-0.66,0.2
				C1440.67,655.61,1439.36,658.04,1437.67,659.58z"/>
			<path class="st14" d="M1482.5,562.79c-2.87-1.88-4.83-4.48-6.77-7.08c-0.19-0.25-0.32-0.63,0.09-0.85
				c0.56-0.29,1.09-0.07,1.41,0.32C1479.23,557.56,1481.39,559.85,1482.5,562.79z"/>
			<path class="st13" d="M1395.14,627.27c0.92,2.02,0.65,4.11,0.25,6.15c-0.26,1.31-0.23,1.84,1.53,1.95
				c2.56,0.17,5.12,0.06,7.67,0.17c1.18,0.05,1.91-0.24,1.8-1.45c0.86,0.95,1.19,1.87-0.67,1.91c-3.19,0.08-6.38-0.02-9.57,0.01
				c-1.05,0.01-1.38-0.34-1.32-1.28C1394.98,632.25,1395.04,629.76,1395.14,627.27z"/>
			<path class="st12" d="M1461.25,661.58c-0.31-0.02-0.61-0.04-0.92-0.05c0.55-2.3,1.9-4.15,3.97-5.53c0.98-0.65,2.08-1.35,3.3-0.28
				c-0.42,0.16-0.84,0.33-1.26,0.49C1463.68,657.25,1462.9,659.76,1461.25,661.58z"/>
			<path class="st10" d="M1476.28,635.26c-0.18-1.97-2.21,0.33-2.69-0.96c3.32-0.82,4.58-3.17,5.32-5.91
				c0.79,0.46,0.49,1.03,0.26,1.65c-0.28,0.77-0.5,1.58,0.82,1.76C1479.27,633.4,1478.1,634.62,1476.28,635.26z"/>
			<path class="st14" d="M1416.63,554.96c-0.88,2.66-2.86,4.61-4.69,6.63c-0.31,0.34-0.76,0.85-1.31,0.43
				c-0.49-0.38-0.19-0.94,0.11-1.32C1412.43,558.55,1414.1,556.4,1416.63,554.96z"/>
			<path class="st12" d="M1450.89,670.84c0.25-0.2,0.51-0.4,0.77-0.61c2.29,0.52,3.88-0.44,5.27-1.96c0.43-0.47,0.41-1.48,1.55-1.22
				c-0.01,0.39-0.02,0.77-0.02,1.15C1456.3,671.46,1453.47,672.44,1450.89,670.84z"/>
			<path class="st14" d="M1392.05,527.24c3.26-0.69,6.51-0.89,10.36,0.13C1398.54,528.27,1395.28,528.56,1392.05,527.24z"/>
			<path class="st6" d="M1444.63,600.49c1.76-1.44,3.47-1.04,5.16,0.11c0.02,1.77-1.47,1.79-2.75,1.78
				C1445.78,602.37,1444.51,602.08,1444.63,600.49z"/>
			<path class="st14" d="M1492.1,527.67c2.55-1.22,5.22-0.61,7.84-0.71c0.46-0.02,0.95,0.25,0.95,0.69c0,0.43-0.5,0.69-0.96,0.68
				C1497.31,528.27,1494.64,528.69,1492.1,527.67z"/>
			<path class="st6" d="M1511.79,619.12c0.01-0.3,0.01-0.61,0.02-0.91c2.14,0.01,4.28,0.01,6.42,0.02c-2.83-0.93-5.8,0.04-8.59-0.93
				c2.74-0.02,5.47-0.05,8.21-0.06c0.75,0,1.41,0.06,1.41,1c0,0.92-0.62,1.01-1.39,1C1515.85,619.2,1513.81,619.16,1511.79,619.12z"
				/>
			<path class="st13" d="M1452.6,634.36c0.7,0.16-2.08,1.32,0.52,1.2c2.1-0.09,4.02-0.31,5.88-1.14c1-0.04,0.89,0.6,0.8,1.15
				c-0.1,0.65-0.73,0.59-1.25,0.59c-2.03,0-4.07,0-6.1-0.03c-0.82-0.01-2,0.32-1.9-0.99
				C1450.65,633.87,1451.78,634.34,1452.6,634.36z"/>
			<path class="st12" d="M1434.34,668.32c0.38-0.18,0.76-0.36,1.14-0.54c2.04,1.01,3.8,0.93,5.13-1.01c0.1,0.55,0.3,1.04,1,1.15
				c-2.25,1.19-4.39,3.07-7.12,0.83C1434.39,668.65,1434.4,668.46,1434.34,668.32z"/>
			<path class="st13" d="M1466.33,656.21c0.42-0.16,0.84-0.33,1.26-0.49c2.79,2.38,2.61,4.49-0.6,5.59
				C1467.27,659.52,1470.13,657.43,1466.33,656.21z"/>
			<path class="st14" d="M1413.88,499.79c1.76,1.62,3.52,3.23,5.27,4.85c0.26,0.24,0.43,0.58,0.11,0.84
				c-0.51,0.4-1.05,0.17-1.41-0.19c-1.57-1.6-3.1-3.23-4.65-4.85C1413.43,500.22,1413.65,500,1413.88,499.79z"/>
			<path class="st12" d="M1487.56,670.54c-0.23-0.25-0.45-0.5-0.67-0.74c0.59-0.68,1.19-1.36,1.78-2.04
				c0.49-0.57,0.64-1.48,1.91-1.1c1.17,0.35,0.71,1.22,0.98,1.86c-0.29,0.32-0.58,0.63-0.87,0.95c-1.55-2.77-1.59,0.76-2.54,0.5
				c-0.2,0.18-0.4,0.36-0.6,0.54L1487.56,670.54z"/>
			<path class="st14" d="M1479.55,500.38c-1.6,2.06-3.42,3.91-5.87,5.17C1475.49,503.69,1476.3,500.94,1479.55,500.38z"/>
			<path class="st12" d="M1480.49,668.43c0.77,0.42,0.5,1.08,0.49,1.68c-1.18,1.72-2.57,2.82-4.83,1.33c0-0.19,0-0.37,0.01-0.55
				c0.1-0.08,0.2-0.17,0.3-0.25C1478.84,671.48,1479.34,669.47,1480.49,668.43z"/>
			<path class="st13" d="M1465.39,621.49c0.67,0.27,0.7,0.75,0.31,1.18c-1.92,2.11-1.26,4.42-0.59,6.68
				c0.24,0.82,0.53,1.54-0.08,2.29C1463.35,628.21,1463.28,624.82,1465.39,621.49z"/>
			<path class="st15" d="M1460.86,515.94c0.56-2.69,1.97-4.91,4.43-6.55c0.82,0,1.65,0,2.47,0c-3.27,1.24-5.36,3.33-5.86,6.6
				C1461.56,515.97,1461.21,515.96,1460.86,515.94z"/>
			<path class="st16" d="M1438.51,513.06c0.62,2.15,1.24,4.3,1.87,6.45c-0.34-0.04-0.68-0.09-1.02-0.14
				c-0.86-2.6-1.71-5.2-2.57-7.81C1437.77,511.67,1438.08,512.42,1438.51,513.06z"/>
			<path class="st16" d="M1414.74,526.69c-2.79-0.35-5.25,0.36-7.43,1.93c0.01-0.44,0.02-0.88,0.04-1.31
				c2.24-1.5,4.66-2.13,7.39-1.26C1414.73,526.26,1414.73,526.47,1414.74,526.69z"/>
			<path class="st16" d="M1444.24,582.46c2.13,0.07,3.21,2.6,5.64,1.99c0.02,0.29,0.03,0.59,0.05,0.88
				c-2.54,1.58-3.81-0.86-5.66-1.48C1444.26,583.39,1444.25,582.92,1444.24,582.46z"/>
			<path class="st15" d="M1479.81,518.08c-2.96-1.03-5.77,0.17-8.64,0.47c1.88-1.92,4.37-1.98,6.91-1.83
				C1478.71,517.12,1479.53,517.32,1479.81,518.08z"/>
			<path class="st10" d="M1440.81,679.07c-0.42-0.01-0.84-0.01-1.27-0.02c0.42-1.63,0.85-3.25,1.26-4.87
				c0.8,0.06,0.96-0.69,1.49-0.97C1442.09,675.23,1441.8,677.22,1440.81,679.07z"/>
			<path class="st13" d="M1397.85,617.44c-1.54-0.07-2.13,0.58-2.2,1.99c-0.07,1.45,0.56,3-0.52,4.35c-0.06-1.45,0.07-2.93-0.2-4.35
				c-0.45-2.38,0.71-2.84,2.93-2.35C1397.86,617.21,1397.86,617.32,1397.85,617.44z"/>
			<path class="st16" d="M1452.36,518c-0.07-2.33,1.55-4.2,2.13-6.35c0.36-0.36,0.72-0.71,1.08-1.06c0.52,0.18,0.69,0.53,0.38,0.93
				c-1.68,2.13-2.01,4.71-2.97,7.08C1452.78,518.39,1452.57,518.2,1452.36,518z"/>
			<path class="st17" d="M1485.99,635.71c0.35-0.03,0.72-0.06,1.07-0.09c0.86-0.61,0.49-1.48,0.5-2.24
				c0.05-3.76,0.04-7.53,0.05-11.3c0.15,0,0.3,0,0.46,0c0.01,4.23,0.01,8.46,0.04,12.69
				C1488.11,636.47,1487.39,636.7,1485.99,635.71z"/>
			<path class="st12" d="M1480.08,656.24c3.17-0.47,4.92,0.96,4.47,3.98c-1.25-1.12-1.15-3.35-3.47-3.18
				C1481.01,656.49,1480.67,656.23,1480.08,656.24z"/>
			<path class="st6" d="M1507.51,634.82c0.02-5.22,0.04-10.43,0.05-15.64c0.16,0.17,0.32,0.33,0.48,0.49
				c-0.02,5.04-0.05,10.08-0.07,15.12C1507.82,634.81,1507.67,634.82,1507.51,634.82z"/>
			<path class="st14" d="M1405.99,514.6c-2.04-1.11-4.08-2.22-6.44-3.51C1402.13,510.98,1404.64,512.22,1405.99,514.6z"/>
			<path class="st14" d="M1445.81,508.39c0-1.72,0.01-3.44,0.01-5.77C1447.77,504.89,1447.42,506.65,1445.81,508.39z"/>
			<path class="st15" d="M1425.51,508.67c1.81,1.23,3.34,2.64,3.33,5.04c-1.32-1.78-3.01-3.25-4.35-5.01
				C1424.83,508.69,1425.17,508.68,1425.51,508.67z"/>
			<path class="st13" d="M1507.51,634.82c0.15-0.01,0.31-0.01,0.46-0.02c0.19,0.17,0.38,0.35,0.57,0.52
				c0.17,0.26,0.34,0.28,0.53,0.01c2.84,0.94,5.78,0.34,8.68,0.44c1.01,0.04,0.94-0.77,0.99-1.41c1.03,1.61,0.99,1.88-0.56,1.92
				c-3.22,0.08-6.44,0-9.66,0.02C1507.23,636.3,1507.37,635.58,1507.51,634.82z"/>
			<path class="st14" d="M1429.21,563.87c-0.63,1.71-1.27,3.42-1.91,5.13c-0.77-2.13-0.28-3.93,1.25-5.46
				C1428.77,563.65,1428.99,563.76,1429.21,563.87z"/>
			<path class="st18" d="M1507.56,619.18c0-0.34-0.02-0.67-0.02-1.01c0.12-0.13,0.2-0.21,0.32-0.34c0.61-0.14,1-0.85,1.77-0.54
				c2.79,0.97,5.76,0,8.59,0.93c-2.14-0.01-4.28-0.01-6.42-0.02c-0.2,0-0.4,0.01-0.6,0.01c-1.17,0.06-2.76-0.53-2.67,1.44
				c-0.16-0.01-0.33-0.02-0.49-0.02C1507.86,619.47,1507.75,619.36,1507.56,619.18z"/>
			<path class="st13" d="M1499.94,629.46c1.28-0.49,1.14-1.52,1.15-2.49c0.01-2.26,0.01-4.52,0.38-6.78
				c-0.01,3.53-0.02,7.06-0.03,10.61c-0.57-0.11-0.65-1.11-1.51-0.91C1499.82,629.75,1499.82,629.6,1499.94,629.46z"/>
			<path class="st6" d="M1449.83,593.58c-1.61,1.02-3.18,2.15-5.35,1.41c-0.03-0.41-0.06-0.81-0.08-1.22
				c2.23,1.38,3.61-1.06,5.54-1.02C1449.9,593.02,1449.86,593.3,1449.83,593.58z"/>
			<path class="st13" d="M1448.07,666.8c0.24,0.22,0.48,0.43,0.72,0.65c-1.12,1.35-2.68,2.15-4.28,2.91
				c-0.02-0.38-0.05-0.77-0.07-1.15C1445.65,668.4,1446.86,667.6,1448.07,666.8z"/>
			<path class="st6" d="M1444.25,565.86c1.74,0.44,3.38,1.37,5.3,0.97c0.22,0.32,0.22,0.64,0,0.96c-2.02,0.77-3.63-0.12-5.25-1.04
				C1444.29,566.45,1444.27,566.16,1444.25,565.86z"/>
			<path class="st14" d="M1491.3,547.01c-2.11-0.66-3.75-1.83-4.84-3.62C1488.47,544.15,1490,545.45,1491.3,547.01z"/>
			<path class="st14" d="M1487.11,514.44c1.03-1.83,2.58-2.64,5.41-2.98C1490.91,512.96,1488.99,513.65,1487.11,514.44z"/>
			<path class="st6" d="M1444.35,574.21c1.72-0.02,3.45,0.72,5.16-0.05c0.02,0.32,0.04,0.63,0.06,0.95
				c-1.7,0.88-3.54,0.34-5.32,0.44C1444.28,575.1,1444.32,574.66,1444.35,574.21z"/>
			<path class="st14" d="M1460.41,498.83c-0.47,1.87-0.95,3.75-1.59,6.27c-1.1-2.81,0.24-4.54,0.81-6.4
				C1459.89,498.75,1460.15,498.79,1460.41,498.83z"/>
			<path class="st13" d="M1456.33,631.76c-0.78-3.91-0.76-7.81,0.01-11.72C1456.33,623.95,1456.33,627.85,1456.33,631.76z"/>
			<path class="st14" d="M1434.24,503.97c-0.75-1.62-0.99-3.37-1.43-5.07C1434.23,500.37,1434.93,502.01,1434.24,503.97z"/>
			<path class="st14" d="M1401.52,546.63c1.5-1.9,2.62-3.3,4.87-3.45C1405.16,544.45,1403.97,545.76,1401.52,546.63z"/>
			<path class="st14" d="M1464.08,564.17c1.02,1.49,1.59,3.1,2,4.93C1464.53,567.98,1463.9,566.49,1464.08,564.17z"/>
			<path class="st13" d="M1430.78,623.92c0.55,2.11,0.52,4.24,0.23,6.38C1430.13,628.2,1430.35,626.06,1430.78,623.92z"/>
			<path class="st13" d="M1459.13,618.93c-0.21-1.29-1.27-1.25-2.36-1.34c-1.35-0.11-2.8,0.47-4.06-0.41
				c1.95-0.02,3.89-0.11,5.84-0.03C1460.12,617.22,1460.18,617.48,1459.13,618.93z"/>
			<path class="st17" d="M1397.82,626.66c1.46-0.83,3.07-0.29,4.6-0.37c1.07-0.06,1.94-0.11,1.91-1.35
				c0.38-0.06,0.75-0.11,0.99,0.27c0.02,0.42,0.03,0.84,0.05,1.26C1402.86,627.06,1400.34,626.71,1397.82,626.66z"/>
			<path class="st18" d="M1397.85,617.44c0.01-0.12,0.01-0.23,0-0.48l1.65,0c1.58,0.7,3.17,0.7,4.75,0.5l1.15,0
				c0.17-0.08,0.33,0.2,0.5,0.49C1403.23,617.66,1400.46,618.55,1397.85,617.44z"/>
			<path class="st13" d="M1429.9,671.22c-1.01,0-0.7-0.51-0.46-0.99c0.06-0.1,0.14-0.12,0.25-0.05c0.26-0.17,0.52-0.33,0.78-0.49
				l-0.05,0.03c0.2-0.16,0.41-0.32,0.61-0.48l-0.03,0.02c0.17-0.19,0.35-0.39,0.52-0.59c0.08-0.41,0.39-0.52,0.78-0.45
				c0.54,0.1,0.39,0.47,0.23,0.73C1431.91,669.96,1431.08,670.76,1429.9,671.22z"/>
			<path class="st13" d="M1500.96,635.26c0.03-0.63,0.07-1.26,0.1-1.89c0.1,0,0.2,0,0.31-0.01c0.08,0.66,0.16,1.32,0.24,1.98
				c-1.22,1.47-1.54,1.36-3.33-1.06c0.02-0.17,0.03-0.34,0.06-0.52c1.17-0.02,1.18,1.3,2.13,1.52
				C1500.64,635.56,1500.81,635.58,1500.96,635.26z"/>
			<path class="st17" d="M1397.85,618.9c2.8-1.05,5.73-0.12,8.58-0.49C1403.65,619.68,1400.71,618.68,1397.85,618.9z"/>
			<path class="st13" d="M1473.62,617.2c-1.77,0.53-3.42,1.45-5.39,1.34C1469.78,617.27,1471.59,616.9,1473.62,617.2z"/>
			<path class="st13" d="M1534.32,617.9c-1.8,0.9-3.54-0.67-5.33-0.12l-0.01-0.01c0.01-0.14,0.01-0.29,0.01-0.43
				C1530.83,617.13,1532.62,617.12,1534.32,617.9z"/>
			<path class="st9" d="M1498.33,633.77c-0.02,0.17-0.03,0.35-0.06,0.52c-0.56-0.79-1.11-1.58-1.67-2.37
				C1498.08,631.84,1498.37,632.68,1498.33,633.77z"/>
			<path class="st13" d="M1404.25,616.98c-1.58,0.56-3.17,0.56-4.75-0.01C1401.09,616.97,1402.67,616.98,1404.25,616.98z"/>
			<path class="st13" d="M1426.66,670.79c0.81-0.12,1.35,0.21,1.69,0.86C1427.63,671.62,1427,671.43,1426.66,670.79z"/>
			<path class="st10" d="M1479.94,656.24c0.6-0.01,0.93,0.26,1.01,0.79c-0.36,0.16-0.72,0.31-1.09,0.47c0-0.41,0-0.82,0-1.23
				L1479.94,656.24z"/>
			<path class="st8" d="M1405.36,626.46c-0.02-0.42-0.03-0.84-0.05-1.26C1405.75,625.61,1405.66,626.04,1405.36,626.46z"/>
			<path class="st13" d="M1405.9,617.96c-0.17-0.28-0.33-0.57-0.5-0.85c0.86-0.19,1.3,0.03,1.08,0.9
				C1406.29,618,1406.1,617.98,1405.9,617.96z"/>
			<path class="st13" d="M1529,617.78c-0.56,0.61-1.09,0.65-1.6-0.06l0.21-0.01c0.46,0.02,0.92,0.04,1.38,0.06L1529,617.78z"/>
			<path class="st13" d="M1426.19,670.27c0.09-0.19,0.17-0.38,0.25-0.56c0.6,0.28,0.14,0.74,0.23,1.1
				C1426.52,670.63,1426.36,670.45,1426.19,670.27z"/>
			<path class="st9" d="M1528.99,617.77c-0.46-0.02-0.92-0.04-1.38-0.06c0.37-0.4,0.86-0.46,1.39-0.37
				C1528.99,617.49,1528.99,617.63,1528.99,617.77z"/>
			<path class="st12" d="M1479.86,656.27c0,0.41,0,0.82,0,1.23c-0.05,0.16-0.17,0.23-0.34,0.22c-0.09-0.2-0.19-0.4-0.28-0.61
				c0.08-0.23,0.14-0.4,0.23-0.63C1479.6,656.42,1479.73,656.34,1479.86,656.27z"/>
			<path class="st15" d="M1482.7,527.95c-0.19-0.33-0.17-0.63,0.14-0.89c-0.04,0.28-0.07,0.57-0.1,0.85
				C1482.74,527.92,1482.7,527.95,1482.7,527.95z"/>
			<path class="st15" d="M1446.47,519.47c-0.58-0.13-0.46-0.54-0.44-0.91c0.14,0,0.27,0.02,0.4,0.08
				C1446.44,518.92,1446.45,519.2,1446.47,519.47z"/>
			<path class="st12" d="M1479.86,657.75c-0.3-0.23-0.6-0.45-0.9-0.68l0.02,0c0.2,0.02,0.4,0.04,0.6,0.05
				c0.09,0.2,0.19,0.4,0.28,0.6C1479.86,657.73,1479.86,657.75,1479.86,657.75z"/>
			<path class="st12" d="M1441.1,666.05c0.05,0.37-0.09,0.64-0.5,0.77C1440.76,666.55,1440.93,666.3,1441.1,666.05z"/>
			<path class="st9" d="M1498.47,631.33c-0.19-0.2-0.39-0.4-0.58-0.59C1498.08,630.93,1498.27,631.13,1498.47,631.33z"/>
			<path class="st10" d="M1479.37,657.13c-0.2-0.02-0.4-0.04-0.6-0.05c0.21-0.16,0.41-0.32,0.62-0.48
				C1479.39,656.77,1479.38,656.95,1479.37,657.13z"/>
			<path class="st10" d="M1475.21,635.74c0.29-0.14,0.58-0.28,0.87-0.42C1475.8,635.46,1475.5,635.6,1475.21,635.74z"/>
			<path class="st10" d="M1431.52,668.68c-0.17,0.19-0.35,0.39-0.52,0.59C1431.18,669.08,1431.35,668.88,1431.52,668.68z"/>
			<path class="st10" d="M1431.03,669.25c-0.2,0.16-0.41,0.32-0.61,0.48C1430.62,669.57,1430.82,669.41,1431.03,669.25z"/>
			<path class="st10" d="M1430.46,669.69c-0.26,0.17-0.52,0.33-0.78,0.49C1429.94,670.02,1430.2,669.85,1430.46,669.69z"/>
			<path class="st10" d="M1487.54,670.5c0.2-0.18,0.4-0.36,0.6-0.54C1487.94,670.14,1487.74,670.32,1487.54,670.5z"/>
			<path class="st12" d="M1475.44,671.04c0.27-0.23,0.55-0.46,0.83-0.69c0.13,0.06,0.19,0.15,0.18,0.28c-0.1,0.08-0.2,0.17-0.3,0.25
				c-0.22,0.05-0.44,0.11-0.66,0.15C1475.49,671.05,1475.44,671.04,1475.44,671.04z"/>
			<path class="st10" d="M1480.02,631.75c0.02-0.12,0.07-0.22,0.14-0.32l0.04,0.19L1480.02,631.75z"/>
			<path class="st10" d="M1475.49,671.05c0.22-0.05,0.44-0.11,0.66-0.15c0,0.19,0,0.37-0.01,0.55
				C1475.93,671.31,1475.71,671.18,1475.49,671.05z"/>
			<path class="st12" d="M1402.12,664.64c0.02-0.37,0.18-0.64,0.59-0.74C1402.51,664.15,1402.32,664.4,1402.12,664.64z"/>
			<path class="st6" d="M1508.04,617.81c-0.17,0.14-0.33,0.28-0.5,0.42C1507.45,617.82,1507.69,617.76,1508.04,617.81z"/>
			<path class="st15" d="M1480.18,518.42c-0.14-0.12-0.28-0.24-0.41-0.37C1479.91,518.18,1480.05,518.3,1480.18,518.42z"/>
			<path class="st7" d="M1428.71,541.73c3.12,0.88,5.52,2.91,8.32,4.32c0.72,0.36,0.95,1.1-0.01,1.74
				c-0.66,0.44-0.98,1.14-0.87,1.94l0.03-0.03c-1.28,0.82-1.54,2.09-1.65,3.35c-0.1,1.2-0.76,1.47-1.71,0.89
				c-3.61-2.22-7.84-3.62-10.83-6.66C1423.46,544.65,1425.17,542.28,1428.71,541.73z"/>
			<path class="st7" d="M1468.38,546.86c-2.03,2.86-5.18,4.53-8.15,6.4c-0.85,0.54-1.37,0.57-1.62-0.54
				c-0.16-0.69-0.64-1.31-0.98-1.97c-0.67-1.58-1.6-2.89-3.71-2.97l0.03,0.03c0.29-0.48-1.47-0.61-0.3-1.2
				c2.54-1.28,4.38-3.51,7.21-4.39C1464.42,542.35,1466.61,544.32,1468.38,546.86z"/>
			<path class="st19" d="M1481.53,528.8c0.16,3-1.88,5.25-3.24,7.73c-0.9,1.65-1.93-0.44-2.87,0.07l0.04,0.03
				c-0.8-2.27-2.96-1.31-4.59-1.59c-0.76-0.13-1.8,0.43-2.25-0.16c-0.6-0.8,0.38-1.52,0.89-2.07c1.67-1.8,1.87-4.34,3.78-5.99
				C1476.47,525.99,1479.41,525.98,1481.53,528.8z"/>
			<path class="st19" d="M1461.47,541.45c2.73-2.48,4.57-6.03,9.39-5.89c1.67,0.05,3.06,0.71,4.59,1.06l-0.04-0.03
				c1.57,1.33,1.24,2.57-0.12,3.86c-2.09,1.98-3.45,4.61-6.33,5.89C1467.68,543.2,1465.05,541.73,1461.47,541.45z"/>
			<path class="st19" d="M1436.15,549.72c3.88-2.43,5-2.41,9.23,0.07c0.59,0.35,0.93,0.71,0.91,1.35c-0.05,1.79-0.06,3.57-0.13,5.36
				c-0.05,1.23-0.69,1.78-2.08,1.41c-1.62-0.44-3.29-0.77-4.87-1.3c-4.13-1.38-4.27-1.7-3.16-5.51c0.13-0.45,0.09-0.94,0.13-1.41
				C1436.18,549.7,1436.15,549.72,1436.15,549.72z"/>
			<path class="st19" d="M1421.11,546.69c-3.16-1.5-5.54-3.82-7.86-6.19c-0.23-0.23-0.1-0.75-0.14-1.13l-0.04,0.03
				c0.58-0.37,1.24-0.7,1.1-1.5l-0.04,0.03c0.53,0.11,0.9-0.06,1.12-0.51l-0.04,0.03c4.86-2.03,8.76-0.78,11.94,2.91
				C1424.91,542.3,1421.86,543.59,1421.11,546.69z"/>
			<path class="st19" d="M1457.05,551.3c1.17,3.36,1.11,3.48-2.43,4.82c-1.81,0.68-3.65,1.21-5.58,1.59
				c-1.46,0.29-1.99-0.03-1.99-1.33c0-1.69-0.07-3.39-0.04-5.09c0.02-1.25,3.36-3.42,5.34-3.5c0.53-0.02,1.06,0.01,1.59,0.02
				l-0.03-0.03C1454.96,548.95,1456,550.12,1457.05,551.3z"/>
			<path class="st8" d="M1439.36,519.36c0.34,0.04,0.68,0.09,1.02,0.14c1.26,2.29,4.05,2.62,6.11,3.89c0.55-0.1,1.48,0.61,1.52-0.58
				c1.71-0.81,3.46-1.58,4.26-3.33c0.2-0.15,0.41-0.3,0.62-0.45c1.68,0.4,2.49-1.05,3.79-1.48c1.42-0.46,2.79-1.06,4.18-1.61
				c0.35,0.02,0.7,0.03,1.04,0.05c3.57-0.59,6.36,1.2,9.29,2.54c0,0.17,0,0.34-0.01,0.5c-2.15,0.39-3.61-1.16-5.45-1.68
				c-4.59-1.3-7.72,1.04-11.04,3.01c-2.32,1.38-4.71,2.73-6.25,4.95c-0.24,0.35-0.51,0.28-0.87,0.09c-1.97-1.04-3.89-2.21-5.98-3.01
				c-1.88-0.72-3.17-2.4-5.4-2.51c-1.59-0.07-1.85-1.3-2.12-2.43C1436.18,517.34,1437.45,519.08,1439.36,519.36z"/>
			<path class="st14" d="M1462.87,519.95c1.99-1.14,3.96-0.93,5.83,0.45c2.24,1.66,3.3,4.98,2.47,7.49c-0.23,0.7-0.53,1.29-1.37,1.2
				c-0.78-0.08-0.85-0.73-0.74-1.33C1469.9,523.37,1467.8,520.79,1462.87,519.95z"/>
			<path class="st14" d="M1431.04,538.1c4.61,2.97,9.82,4.96,14.7,7.48c0.76,0.39,1.96,0.82,1.44,1.69
				c-0.69,1.15-1.57-0.02-2.19-0.36c-4.88-2.67-10.29-4.58-14.48-8.25C1430.69,538.47,1430.87,538.28,1431.04,538.1z"/>
			<path class="st14" d="M1424.53,519.07c-7.41,4.76-2.53,9.95-0.58,15.23c-3.32-1.79-5.58-7.12-4.73-10.47
				C1419.95,520.88,1421.66,519.27,1424.53,519.07z"/>
			<path class="st16" d="M1421.11,546.69c0.75-3.11,3.8-4.4,6.05-6.32c0.88,0.1,1.4,0.55,1.55,1.35c-3.53,0.55-5.25,2.92-6.72,5.54
				C1421.7,547.08,1421.41,546.89,1421.11,546.69z"/>
			<path class="st8" d="M1425.47,515.94c3.08-0.98,5.77-0.14,8.29,1.46c-1.81,0.78-3.57,1.41-5.18-0.43
				C1427.84,516.11,1426.27,516.92,1425.47,515.94z"/>
			<path class="st16" d="M1461.47,541.45c3.58,0.27,6.2,1.75,7.49,4.9c-0.19,0.17-0.39,0.34-0.59,0.5
				c-1.77-2.53-3.96-4.51-7.53-4.63C1461.06,541.97,1461.27,541.71,1461.47,541.45z"/>
			<path class="st15" d="M1481.53,528.8c-2.12-2.82-5.06-2.81-8.24-1.98c-0.16-0.33-0.32-0.66-0.47-1c1.55-0.14,3.12-0.48,4.66-0.38
				c1.87,0.12,3.53,0.87,4.45,2.53C1481.78,528.25,1481.66,528.52,1481.53,528.8z"/>
			<path class="st14" d="M1468.77,531.14c-0.41,0.93-0.39,2.32-2.09,2.54c-0.6,0.08-1.14-0.27-0.94-0.82
				c0.45-1.19,1.08-2.4,2.43-2.9C1468.71,529.78,1468.91,530.48,1468.77,531.14z"/>
			<path class="st16" d="M1419.77,519.43c-1.31-1.49-2.62-2.98-5.06-3.74c3.33-0.73,4.39,1.45,5.97,2.82
				C1420.64,519.02,1420.37,519.36,1419.77,519.43z"/>
			<path class="st16" d="M1457.05,551.3c-1.05-1.17-2.09-2.34-3.14-3.51c2.12,0.08,3.05,1.39,3.71,2.97
				C1457.43,550.93,1457.24,551.11,1457.05,551.3z"/>
			<path class="st19" d="M1430.52,538.66c-0.47-0.26-1.38-0.5-0.91-1.06c0.49-0.58,0.98,0.22,1.44,0.49
				C1430.87,538.28,1430.69,538.47,1430.52,538.66z"/>
			<path class="st20" d="M1378.52,622.11c0.38-1.24-1.15-3.48,2.38-3.26c3.95,0.25,5.62,1.07,5.63,3.47
				c0.01,2.36-1.66,3.19-5.32,3.48C1377.52,626.08,1378.71,623.84,1378.52,622.11z"/>
			<path class="st20" d="M1418.55,619.63c1.65,2.94,2.39,5.67,3.42,8.3c0.17,0.42,0.42,1.16-0.29,1.2c-2.03,0.11-4.09,0.16-6.1-0.03
				c-0.87-0.08-0.29-0.89-0.1-1.37C1416.44,625.15,1417.41,622.6,1418.55,619.63z"/>
			<path class="st6" d="M1414.18,537.91c0.14,0.81-0.52,1.13-1.1,1.5C1412.74,538.49,1413.14,538.01,1414.18,537.91z"/>
			<path class="st6" d="M1415.26,537.44c-0.22,0.45-0.59,0.62-1.12,0.51C1414.31,537.4,1414.71,537.28,1415.26,537.44z"/>
			<path class="st20" d="M1478.91,628.39c-0.73,2.74-2,5.09-5.32,5.91c-4.52-0.24-6.52-1.99-7.03-6.09
				c-0.18-1.47-0.14-2.92,0.16-4.34c0.6-2.85,2.93-4.7,5.85-4.74c2.78-0.05,5.16,1.67,5.82,4.46
				C1478.77,625.14,1478.75,626.78,1478.91,628.39z"/>
			<path class="st6" d="M1452.89,519.02c-0.2,0.15-0.41,0.3-0.62,0.45c0.03-0.49,0.06-0.98,0.09-1.47c0.21,0.2,0.42,0.39,0.63,0.58
				C1453,518.74,1452.96,518.89,1452.89,519.02z"/>
			<path class="st6" d="M1487.61,622.09c-0.01,3.77,0,7.53-0.05,11.3c-0.01,0.76,0.36,1.62-0.5,2.24c-0.01-0.11-0.02-0.22-0.02-0.33
				c0-0.51,0-1.02-0.01-1.53c0.01-0.15,0.01-0.29,0.01-0.43c0.02-4.4,0.04-8.81,0.06-13.21
				C1487.84,620.65,1487.51,621.41,1487.61,622.09z"/>
			<path class="st18" d="M1487.1,620.11c-0.02,4.4-0.04,8.81-0.06,13.21c-1.2-3.13-0.3-6.35-0.47-9.53
				C1486.5,622.58,1486,621.22,1487.1,620.11z"/>
			<path class="st18" d="M1487.03,633.76c0,0.51,0,1.02,0.01,1.53C1486.34,634.78,1486.33,634.27,1487.03,633.76z"/>
			<path class="st6" d="M1508.54,619.7c-0.08-1.97,1.5-1.38,2.67-1.44c-1.59,0.46-2.25,1.26-2.18,2.95
				c0.17,4.7,0.05,9.42,0.04,14.12c-0.18,0.28-0.36,0.26-0.53-0.01C1508.54,630.11,1508.54,624.9,1508.54,619.7z"/>
			<path class="st15" d="M1448.01,522.81c-0.04,1.2-0.97,0.49-1.52,0.58c-0.01-1.32-0.03-2.63-0.04-3.95
				C1447.61,520.32,1447,521.88,1448.01,522.81z"/>
			
				<ellipse transform="matrix(2.417879e-03 -1 1 2.417879e-03 873.0499 2122.3306)" class="st17" cx="1500.26" cy="623.58" rx="6.2" ry="0.16"/>
			<path class="st9" d="M1500.96,635.26c-0.15,0.32-0.31,0.3-0.49,0.02C1500.63,635.28,1500.8,635.27,1500.96,635.26z"/>
			<path class="st20" d="M1440.8,674.18c-0.42,1.63-0.84,3.25-1.26,4.87c-1.02,1.01-1.83,2.74-3.77,1.45
				c-1.88-1.24-1.07-2.9-0.23-4.31c1-1.68,3.02-2.39,4.62-3.48C1441.06,672.96,1440.74,673.64,1440.8,674.18z"/>
			<path class="st17" d="M1508.54,619.7c0,5.21,0,10.42,0,15.62c-0.19-0.17-0.38-0.35-0.57-0.52c0.02-5.04,0.05-10.08,0.07-15.12
				C1508.2,619.68,1508.37,619.69,1508.54,619.7z"/>
		</g>
	</g>
</g>
</svg>
